# xmcd
#
# Track frame offsets:
# 150
# 13285
# 33674
# 48628
# 63103
# 78026
# 97747
# 114278
# 131137
# 145587
#
# Disc length: 2091 seconds
#
#
# Revision: 2
# Processed by: cddbd v1.5.1PL0 Copyright (c) Steve Scherf et al.
# Submitted via: FreeRIP 2.941 
#
DISCID=7a08290a
DTITLE=Rebelde - Quinteto
DYEAR=2001
DGENRE=Salsa
TTITLE0=Respeto Al Che Guevara
TTITLE1=Hay Que Cuidar A Fidel
TTITLE2=Eso Que Tiene Fidel
TTITLE3=Que Venga La Ofensiva
TTITLE4=Que Se Vaya El Mono
TTITLE5=La Lupe
TTITLE6=Cuando La Revolucion De Julio
TTITLE7=Hasta Siempre Comandante
TTITLE8=Mi Aporte Al Imperialismo
TTITLE9=Soy Fidelista
EXTD=http://www.discuba.com
EXTT0=
EXTT1=
EXTT2=
EXTT3=
EXTT4=
EXTT5=
EXTT6=
EXTT7=
EXTT8=
EXTT9=
PLAYORDER=
